<svg width="55" height="55" viewBox="0 0 55 55" fill="none" xmlns="http://www.w3.org/2000/svg">
<path d="M43.5417 16.0416C43.5417 13.5208 41.4792 11.4583 38.9584 11.4583H34.375C33.1146 11.4583 32.0834 12.4896 32.0834 13.75C32.0834 15.0104 33.1146 16.0416 34.375 16.0416H38.9584V22.1146L30.9834 32.0833H22.9167V22.9166C22.9167 21.6562 21.8855 20.625 20.625 20.625H13.75C8.68546 20.625 4.58337 24.7271 4.58337 29.7916V34.375C4.58337 35.6354 5.61462 36.6666 6.87504 36.6666H9.16671C9.16671 40.4708 12.2375 43.5416 16.0417 43.5416C19.8459 43.5416 22.9167 40.4708 22.9167 36.6666H30.9834C32.3813 36.6666 33.6875 36.025 34.5584 34.9479L42.5334 24.9791C43.198 24.1541 43.5417 23.1458 43.5417 22.1146V16.0416ZM16.0417 38.9583C14.7813 38.9583 13.75 37.9271 13.75 36.6666H18.3334C18.3334 37.9271 17.3021 38.9583 16.0417 38.9583Z" fill="black"/>
<path d="M13.75 13.75H20.625C21.8855 13.75 22.9167 14.7812 22.9167 16.0417C22.9167 17.3021 21.8855 18.3333 20.625 18.3333H13.75C12.4896 18.3333 11.4584 17.3021 11.4584 16.0417C11.4584 14.7812 12.4896 13.75 13.75 13.75ZM43.5417 29.7917C39.7375 29.7917 36.6667 32.8625 36.6667 36.6667C36.6667 40.4708 39.7375 43.5417 43.5417 43.5417C47.3459 43.5417 50.4167 40.4708 50.4167 36.6667C50.4167 32.8625 47.3459 29.7917 43.5417 29.7917ZM43.5417 38.9583C42.2813 38.9583 41.25 37.9271 41.25 36.6667C41.25 35.4062 42.2813 34.375 43.5417 34.375C44.8021 34.375 45.8334 35.4062 45.8334 36.6667C45.8334 37.9271 44.8021 38.9583 43.5417 38.9583Z" fill="black"/>
</svg>
