<svg width="78" height="78" viewBox="0 0 78 78" fill="none" xmlns="http://www.w3.org/2000/svg">
<path d="M4.875 23.1562C4.875 20.8936 5.77383 18.7237 7.37375 17.1237C8.97366 15.5238 11.1436 14.625 13.4062 14.625H64.5938C66.8564 14.625 69.0263 15.5238 70.6263 17.1237C72.2262 18.7237 73.125 20.8936 73.125 23.1562V34.5711C72.681 34.3441 72.2235 34.1447 71.7551 33.9739L71.7064 33.9544L71.1336 33.7642L69.3371 33.2231C68.9806 33.1152 68.6175 33.0305 68.25 32.9696V23.1562C68.25 22.1866 67.8648 21.2566 67.1791 20.5709C66.4934 19.8852 65.5634 19.5 64.5938 19.5H13.4062C12.4366 19.5 11.5066 19.8852 10.8209 20.5709C10.1352 21.2566 9.75 22.1866 9.75 23.1562V54.8437C9.75 55.8134 10.1352 56.7434 10.8209 57.4291C11.5066 58.1148 12.4366 58.5 13.4062 58.5H24.375V53.625C24.375 52.3321 24.8886 51.0921 25.8029 50.1779C26.7171 49.2636 27.9571 48.75 29.25 48.75H48.75C50.0429 48.75 51.2829 49.2636 52.1971 50.1779C53.1114 51.0921 53.625 52.3321 53.625 53.625V55.7676C52.5856 55.7658 51.5578 55.9855 50.61 56.4121C49.6623 56.8387 48.8163 57.4624 48.1284 58.2416L48.0699 58.3099L47.736 58.7291L44.382 63.375H13.4062C11.1436 63.375 8.97366 62.4762 7.37375 60.8763C5.77383 59.2763 4.875 57.1064 4.875 54.8437V23.1562ZM48.75 34.125C48.75 36.7109 47.7228 39.1908 45.8943 41.0193C44.0658 42.8478 41.5859 43.875 39 43.875C36.4141 43.875 33.9342 42.8478 32.1057 41.0193C30.2772 39.1908 29.25 36.7109 29.25 34.125C29.25 31.5391 30.2772 29.0592 32.1057 27.2307C33.9342 25.4022 36.4141 24.375 39 24.375C41.5859 24.375 44.0658 25.4022 45.8943 27.2307C47.7228 29.0592 48.75 31.5391 48.75 34.125ZM62.6096 39.0292C63.1493 38.0547 64.0065 37.2943 65.0385 36.8748C66.0705 36.4552 67.2151 36.4018 68.2817 36.7234L70.0294 37.2499L70.4974 37.4059C71.9451 37.9355 73.2222 38.8475 74.1931 40.045C75.1639 41.2424 75.7921 42.6806 76.011 44.2065C76.7349 49.2472 75.1164 55.1411 71.214 61.9003C67.3213 68.6424 63.0362 72.9861 58.3196 74.8873C56.8042 75.4981 55.1452 75.6608 53.5399 75.3562C51.9347 75.0516 50.4507 74.2924 49.2643 73.1689L47.9432 71.916L47.6458 71.6089C46.9111 70.7799 46.4806 69.7254 46.4252 68.6191C46.3698 67.5128 46.6929 66.4206 47.3411 65.5224L50.6488 60.9399L50.8706 60.6621C51.3352 60.1356 51.9415 59.7541 52.6171 59.5631C53.2927 59.372 54.009 59.3795 54.6804 59.5847L59.6797 61.113L59.8089 61.1374H59.9137C60.5109 61.0716 61.7248 59.865 63.2166 57.2812C64.8741 54.4099 65.2153 52.7304 64.7595 52.2966L62.2172 49.9273L61.893 49.6031C61.0837 48.7261 60.5501 47.6304 60.3585 46.4525C60.1669 45.2746 60.3259 44.0663 60.8156 42.978L62.4292 39.3924L62.6096 39.0292Z" fill="black"/>
</svg>
