<svg width="55" height="55" viewBox="0 0 55 55" fill="none" xmlns="http://www.w3.org/2000/svg">
<path d="M11.5156 47.6093C11.4371 47.9455 11.4357 48.295 11.5115 48.6318C11.5873 48.9685 11.7383 49.2838 11.9533 49.5538C12.1682 49.8239 12.4415 50.0418 12.7527 50.1913C13.0639 50.3407 13.4048 50.4177 13.75 50.4166C14.2027 50.4167 14.6452 50.2828 15.0219 50.0316L27.5 41.7129L39.9781 50.0316C40.3685 50.2908 40.8288 50.4242 41.2973 50.414C41.7657 50.4037 42.2198 50.2502 42.5984 49.9742C42.977 49.6981 43.262 49.3128 43.4151 48.8699C43.5681 48.4271 43.5819 47.948 43.4546 47.4971L39.2631 32.8304L49.6581 23.4758C49.991 23.176 50.2288 22.7852 50.342 22.3518C50.4552 21.9183 50.4388 21.4612 50.2949 21.0369C50.1511 20.6126 49.886 20.2398 49.5325 19.9646C49.179 19.6893 48.7526 19.5238 48.306 19.4883L35.2412 18.4479L29.5877 5.9331C29.4076 5.53002 29.1148 5.18767 28.7445 4.94735C28.3741 4.70704 27.9422 4.57904 27.5007 4.5788C27.0593 4.57855 26.6272 4.70608 26.2566 4.94599C25.886 5.1859 25.5928 5.52793 25.4123 5.93081L19.7587 18.4479L6.69394 19.486C6.25498 19.5208 5.83534 19.6813 5.48521 19.9483C5.13508 20.2153 4.8693 20.5776 4.71965 20.9917C4.57001 21.4058 4.54284 21.8543 4.64139 22.2835C4.73995 22.7126 4.96006 23.1043 5.2754 23.4116L14.9325 32.8235L11.5156 47.6093ZM27.5 12.4414L32.1796 22.8021L33.5271 22.9098H33.5294L42.6319 23.6316L35.1358 30.3783L35.1335 30.3829L34.0725 31.3362L34.4644 32.7043V32.7112L37.3358 42.7602L27.5 36.2037V12.4414Z" fill="black"/>
</svg>
