<svg width="55" height="55" viewBox="0 0 55 55" fill="none" xmlns="http://www.w3.org/2000/svg">
<path d="M50.2952 21.0352C50.1511 20.6109 49.886 20.2381 49.5325 19.9628C49.179 19.6875 48.7526 19.5218 48.306 19.486L35.2412 18.4479L29.5877 5.9331C29.4076 5.53002 29.1148 5.18767 28.7445 4.94735C28.3741 4.70704 27.9422 4.57904 27.5007 4.5788C27.0593 4.57855 26.6272 4.70608 26.2566 4.94599C25.886 5.1859 25.5928 5.52793 25.4123 5.93081L19.7587 18.4479L6.69394 19.486C6.25498 19.5208 5.83534 19.6813 5.48521 19.9483C5.13508 20.2153 4.8693 20.5776 4.71965 20.9917C4.57001 21.4058 4.54284 21.8543 4.64139 22.2835C4.73995 22.7126 4.96006 23.1043 5.2754 23.4116L14.9302 32.8235L11.5156 47.6093C11.4119 48.0569 11.4452 48.5253 11.611 48.9537C11.7768 49.3822 12.0676 49.7509 12.4456 50.012C12.8236 50.2731 13.2713 50.4146 13.7307 50.4181C14.1901 50.4216 14.6399 50.287 15.0219 50.0316L27.5 41.7129L39.9781 50.0316C40.3685 50.2908 40.8288 50.4242 41.2973 50.414C41.7657 50.4037 42.2198 50.2502 42.5984 49.9742C42.977 49.6981 43.262 49.3128 43.4151 48.8699C43.5681 48.4271 43.5819 47.948 43.4546 47.4971L39.2631 32.8304L49.6581 23.4758C50.3387 22.8616 50.5885 21.9037 50.2952 21.0352Z" fill="black"/>
</svg>
