<svg width="55" height="55" viewBox="0 0 55 55" fill="none" xmlns="http://www.w3.org/2000/svg">
<g clip-path="url(#clip0_36_136)">
<path d="M9.84725 52.3321C9.57912 53.8583 11.0847 55.0511 12.4116 54.3705L27.5022 46.6155L42.5894 54.3705C43.9163 55.0511 45.4219 53.8583 45.1538 52.3355L42.3007 36.0761L54.4076 24.5399C55.5419 23.4605 54.9576 21.4874 53.4382 21.2742L36.6013 18.8817L29.0938 4.00768C28.9508 3.70617 28.7252 3.45144 28.4431 3.27306C28.1611 3.09469 27.8342 3 27.5005 3C27.1668 3 26.84 3.09469 26.5579 3.27306C26.2759 3.45144 26.0503 3.70617 25.9072 4.00768L18.3997 18.8852L1.56287 21.2777C0.0469337 21.4908 -0.540879 23.4639 0.590059 24.5433L12.7004 36.0796L9.84725 52.3389V52.3321ZM26.7082 42.8205L14.0376 49.3311L16.4232 35.7289C16.4791 35.4158 16.4572 35.0938 16.3595 34.7911C16.2618 34.4884 16.0913 34.2143 15.8629 33.993L5.8735 24.4711L19.8022 22.4911C20.0907 22.4476 20.3642 22.3347 20.5995 22.1623C20.8348 21.9899 21.0248 21.763 21.1532 21.5011L27.4954 8.92674L33.8444 21.5011C33.9728 21.763 34.1628 21.9899 34.3981 22.1623C34.6334 22.3347 34.9069 22.4476 35.1954 22.4911L49.1241 24.4677L39.1347 33.9896C38.9058 34.2113 38.735 34.4859 38.6372 34.7892C38.5395 35.0926 38.518 35.4153 38.5744 35.7289L40.9601 49.3311L28.2894 42.8205C28.0444 42.6942 27.7728 42.6283 27.4971 42.6283C27.2214 42.6283 26.9498 42.6942 26.7047 42.8205H26.7082Z" fill="black"/>
</g>
<defs>
<clipPath id="clip0_36_136">
<rect width="55" height="55" fill="white"/>
</clipPath>
</defs>
</svg>
