<svg width="56" height="56" viewBox="0 0 56 56" fill="none" xmlns="http://www.w3.org/2000/svg">
<path fill-rule="evenodd" clip-rule="evenodd" d="M28.0466 7C22.7768 7 17.9748 8.74067 15.1339 10.1628C14.8773 10.2912 14.6381 10.4172 14.4153 10.5385C13.9743 10.7788 13.5986 11.0028 13.2999 11.2L16.5316 15.9577L18.0529 16.5632C23.9983 19.5627 31.9713 19.5627 37.9178 16.5632L39.6444 15.6672L42.7011 11.2C42.0679 10.787 41.4094 10.4141 40.7294 10.0835C37.9038 8.6765 33.2173 7 28.0466 7ZM20.5298 12.3853C19.3854 12.1712 18.2552 11.8876 17.1453 11.536C19.8064 10.3542 23.7731 9.1 28.0454 9.1C31.0053 9.1 33.8041 9.702 36.1188 10.465C33.4063 10.8465 30.5118 11.494 27.7538 12.2908C25.5838 12.9185 23.0474 12.8508 20.5298 12.3853ZM39.1498 18.2933L38.8639 18.438C32.3224 21.7373 23.6471 21.7373 17.1056 18.438L16.8349 18.3003C7.00927 29.0815 -0.492391 48.9965 28.0466 48.9965C56.5833 48.9965 48.8984 28.7093 39.1498 18.2933ZM26.8333 28C26.2144 28 25.6209 28.2458 25.1834 28.6834C24.7458 29.121 24.4999 29.7145 24.4999 30.3333C24.4999 30.9522 24.7458 31.5457 25.1834 31.9832C25.6209 32.4208 26.2144 32.6667 26.8333 32.6667V28ZM29.1666 25.6667V24.5H26.8333V25.6667C25.5956 25.6667 24.4086 26.1583 23.5334 27.0335C22.6583 27.9087 22.1666 29.0957 22.1666 30.3333C22.1666 31.571 22.6583 32.758 23.5334 33.6332C24.4086 34.5083 25.5956 35 26.8333 35V39.6667C26.3507 39.6668 25.88 39.5173 25.4859 39.2388C25.0919 38.9603 24.7939 38.5664 24.6329 38.1115C24.5299 37.8197 24.3152 37.5808 24.036 37.4474C23.7568 37.3139 23.4361 37.2968 23.1443 37.3998C22.8525 37.5029 22.6136 37.7176 22.4801 37.9968C22.3467 38.276 22.3296 38.5967 22.4326 38.8885C22.7544 39.7985 23.3504 40.5863 24.1385 41.1435C24.9266 41.7008 25.8681 42 26.8333 42V43.1667H29.1666V42C30.4043 42 31.5913 41.5083 32.4664 40.6332C33.3416 39.758 33.8333 38.571 33.8333 37.3333C33.8333 36.0957 33.3416 34.9087 32.4664 34.0335C31.5913 33.1583 30.4043 32.6667 29.1666 32.6667V28C30.1816 28 31.0461 28.6475 31.3681 29.5552C31.4159 29.7037 31.4929 29.8411 31.5948 29.9593C31.6966 30.0775 31.821 30.174 31.9608 30.2433C32.1006 30.3125 32.2529 30.353 32.4086 30.3624C32.5643 30.3718 32.7203 30.3499 32.8674 30.2979C33.0145 30.2459 33.1496 30.165 33.2649 30.0599C33.3801 29.9548 33.4731 29.8276 33.5384 29.6859C33.6037 29.5442 33.6398 29.3909 33.6448 29.235C33.6498 29.079 33.6234 28.9237 33.5673 28.7782C33.2455 27.8682 32.6495 27.0804 31.8614 26.5231C31.0733 25.9659 30.1318 25.6667 29.1666 25.6667ZM29.1666 35V39.6667C29.7854 39.6667 30.3789 39.4208 30.8165 38.9832C31.2541 38.5457 31.4999 37.9522 31.4999 37.3333C31.4999 36.7145 31.2541 36.121 30.8165 35.6834C30.3789 35.2458 29.7854 35 29.1666 35Z" fill="black"/>
</svg>
