<svg width="51" height="48" viewBox="0 0 51 48" fill="none" xmlns="http://www.w3.org/2000/svg">
<path d="M51 13.5C51 17.0804 49.5777 20.5142 47.0459 23.0459C44.5142 25.5777 41.0804 27 37.5 27C33.9196 27 30.4858 25.5777 27.9541 23.0459C25.4223 20.5142 24 17.0804 24 13.5C24 9.91958 25.4223 6.4858 27.9541 3.95406C30.4858 1.42232 33.9196 0 37.5 0C41.0804 0 44.5142 1.42232 47.0459 3.95406C49.5777 6.4858 51 9.91958 51 13.5V13.5ZM39 7.5C39 7.10218 38.842 6.72064 38.5607 6.43934C38.2794 6.15804 37.8978 6 37.5 6C37.1022 6 36.7206 6.15804 36.4393 6.43934C36.158 6.72064 36 7.10218 36 7.5V12H31.5C31.1022 12 30.7206 12.158 30.4393 12.4393C30.158 12.7206 30 13.1022 30 13.5C30 13.8978 30.158 14.2794 30.4393 14.5607C30.7206 14.842 31.1022 15 31.5 15H36V19.5C36 19.8978 36.158 20.2794 36.4393 20.5607C36.7206 20.842 37.1022 21 37.5 21C37.8978 21 38.2794 20.842 38.5607 20.5607C38.842 20.2794 39 19.8978 39 19.5V15H43.5C43.8978 15 44.2794 14.842 44.5607 14.5607C44.842 14.2794 45 13.8978 45 13.5C45 13.1022 44.842 12.7206 44.5607 12.4393C44.2794 12.158 43.8978 12 43.5 12H39V7.5ZM45 40.5V28.2C46.0686 27.6539 47.0746 26.993 48 26.229V40.5C48 42.4891 47.2098 44.3968 45.8033 45.8033C44.3968 47.2098 42.4891 48 40.5 48H7.5C5.51088 48 3.60322 47.2098 2.1967 45.8033C0.790176 44.3968 0 42.4891 0 40.5V16.5C0 14.5109 0.790176 12.6032 2.1967 11.1967C3.60322 9.79018 5.51088 9 7.5 9H21.621C21.3434 9.98064 21.1576 10.985 21.066 12H7.5C6.30653 12 5.16193 12.4741 4.31802 13.318C3.47411 14.1619 3 15.3065 3 16.5V17.406L24 29.76L28.323 27.216C29.298 27.867 30.345 28.419 31.452 28.857L24.762 32.793C24.5707 32.9053 24.3568 32.9738 24.1358 32.9935C23.9148 33.0133 23.6922 32.9837 23.484 32.907L23.238 32.793L3 20.889V40.5C3 41.6935 3.47411 42.8381 4.31802 43.682C5.16193 44.5259 6.30653 45 7.5 45H40.5C41.6935 45 42.8381 44.5259 43.682 43.682C44.5259 42.8381 45 41.6935 45 40.5V40.5Z" fill="black"/>
</svg>
