<svg width="76" height="76" viewBox="0 0 76 76" fill="none" xmlns="http://www.w3.org/2000/svg">
<path d="M51.0616 37.2922C55.3185 37.2922 58.7425 33.8588 58.7425 29.6283C58.7425 25.3979 55.3185 21.9645 51.0616 21.9645C46.8047 21.9645 43.3498 25.3979 43.3498 29.6283C43.3498 33.8588 46.8047 37.2922 51.0616 37.2922ZM27.9263 34.2267C33.0469 34.2267 37.1496 30.1188 37.1496 25.03C37.1496 19.9412 33.0469 15.8334 27.9263 15.8334C22.8057 15.8334 18.6722 19.9412 18.6722 25.03C18.6722 30.1188 22.8057 34.2267 27.9263 34.2267ZM51.0616 43.4233C45.4166 43.4233 34.0957 46.2436 34.0957 51.8535V58.751H68.0275V51.8535C68.0275 46.2436 56.7066 43.4233 51.0616 43.4233ZM27.9263 40.3577C20.739 40.3577 6.33337 43.9444 6.33337 51.0872V58.751H27.9263V51.8535C27.9263 49.2478 28.9443 44.6802 35.2371 41.2161C32.5534 40.6643 29.9622 40.3577 27.9263 40.3577Z" fill="black"/>
</svg>
