<svg width="65" height="65" viewBox="0 0 65 65" fill="none" xmlns="http://www.w3.org/2000/svg">
<path d="M44.6876 17.2656C44.6876 17.8682 44.5089 18.4573 44.1741 18.9583C43.8393 19.4594 43.3634 19.8499 42.8067 20.0805C42.2499 20.3111 41.6373 20.3715 41.0463 20.2539C40.4552 20.1364 39.9123 19.8462 39.4862 19.4201C39.0601 18.9939 38.7699 18.451 38.6524 17.86C38.5348 17.269 38.5951 16.6563 38.8258 16.0996C39.0564 15.5429 39.4469 15.067 39.9479 14.7322C40.449 14.3974 41.0381 14.2187 41.6407 14.2187C42.4488 14.2187 43.2238 14.5397 43.7952 15.1111C44.3666 15.6825 44.6876 16.4575 44.6876 17.2656ZM31.7637 32.9824C31.5626 32.8074 31.3282 32.6749 31.0746 32.5927C30.821 32.5105 30.5534 32.4803 30.2878 32.504C30.0223 32.5277 29.7643 32.6048 29.5292 32.7306C29.2942 32.8565 29.087 33.0285 28.92 33.2363L18.7637 45.4238C18.5888 45.6249 18.4562 45.8593 18.374 46.113C18.2918 46.3666 18.2617 46.6342 18.2854 46.8997C18.3091 47.1653 18.3862 47.4233 18.512 47.6583C18.6378 47.8934 18.8098 48.1006 19.0177 48.2675C19.2188 48.4425 19.4532 48.5751 19.7068 48.6573C19.9604 48.7395 20.228 48.7696 20.4936 48.7459C20.7591 48.7222 21.0171 48.6451 21.2522 48.5193C21.4872 48.3935 21.6944 48.2215 21.8614 48.0136L32.0177 35.8261C32.1926 35.625 32.3252 35.3906 32.4074 35.137C32.4896 34.8834 32.5197 34.6158 32.496 34.3502C32.4723 34.0847 32.3952 33.8266 32.2694 33.5916C32.1436 33.3566 31.9716 33.1494 31.7637 32.9824ZM60.9376 20.3125C60.9407 20.65 60.8585 20.9829 60.6987 21.2803C60.539 21.5777 60.3067 21.8299 60.0235 22.0136L54.8438 25.4668V30.4687C54.8304 37.468 52.044 44.1767 47.0948 49.1259C42.1456 54.0752 35.4368 56.8615 28.4376 56.875H2.03133C1.64961 56.8728 1.27622 56.7632 0.953968 56.5586C0.631713 56.354 0.373633 56.0627 0.209312 55.7181C0.0449914 55.3736 -0.0189186 54.9897 0.0249084 54.6105C0.0687353 54.2313 0.218525 53.8722 0.457107 53.5742L24.3751 23.664V19.2968C24.376 15.6601 25.6779 12.1436 28.0455 9.383C30.4131 6.62242 33.6901 4.79988 37.2843 4.24481C40.8784 3.68973 44.5526 4.43875 47.6427 6.35646C50.7328 8.27418 53.0349 11.2341 54.1329 14.7011L60.0235 18.6113C60.3067 18.795 60.539 19.0473 60.6987 19.3446C60.8585 19.642 60.9407 19.9749 60.9376 20.3125ZM55.2501 20.3125L51.2637 17.6464C50.848 17.3758 50.549 16.959 50.4259 16.4785C49.745 13.8442 48.1262 11.5489 45.8732 10.0234C43.6202 8.49786 40.8879 7.84699 38.1891 8.19291C35.4903 8.53883 33.0105 9.85776 31.2151 11.9022C29.4197 13.9466 28.432 16.576 28.4376 19.2968V24.375C28.4407 24.839 28.2787 25.289 27.9805 25.6445L6.24617 52.8125H28.4376C34.3614 52.8057 40.0408 50.4495 44.2296 46.2607C48.4184 42.0719 50.7746 36.3926 50.7813 30.4687V24.375C50.7782 24.0374 50.8604 23.7045 51.0202 23.4071C51.1799 23.1098 51.4122 22.8575 51.6954 22.6738L55.2501 20.3125Z" fill="black"/>
</svg>
