<svg width="68" height="68" viewBox="0 0 68 68" fill="none" xmlns="http://www.w3.org/2000/svg">
<path d="M62.6493 18.326L41.3993 6.6385C41.0855 6.46588 40.7331 6.37537 40.375 6.37537C40.0169 6.37537 39.6645 6.46588 39.3508 6.6385L18.1008 18.326C17.7676 18.5094 17.4898 18.7789 17.2963 19.1064C17.1027 19.4338 17.0007 19.8072 17.0007 20.1875C17.0007 20.5678 17.1027 20.9412 17.2963 21.2686C17.4898 21.5961 17.7676 21.8656 18.1008 22.049L38.25 33.1309V55.9088L31.7985 52.36L29.75 56.0809L39.3508 61.3615C39.6644 61.5345 40.0168 61.6252 40.375 61.6252C40.7332 61.6252 41.0856 61.5345 41.3993 61.3615L62.6493 49.674C62.9826 49.4907 63.2605 49.2212 63.4541 48.8938C63.6478 48.5663 63.7499 48.1929 63.75 47.8125V20.1875C63.7499 19.8071 63.6478 19.4337 63.4541 19.1063C63.2605 18.7788 62.9826 18.5094 62.6493 18.326ZM40.375 10.9268L57.2156 20.1875L40.375 29.4483L23.5344 20.1875L40.375 10.9268ZM59.5 46.5566L42.5 55.9066V33.1288L59.5 23.7788V46.5566Z" fill="black"/>
<path d="M21.25 34H4.25V29.75H21.25V34Z" fill="black"/>
<path d="M25.5 51H8.5V46.75H25.5V51Z" fill="black"/>
<path d="M29.75 42.5H12.75V38.25H29.75V42.5Z" fill="black"/>
</svg>
