<svg width="76" height="76" viewBox="0 0 76 76" fill="none" xmlns="http://www.w3.org/2000/svg">
<path d="M24.9375 14.25L26.2746 17.5156C27.1082 19.5462 28.2411 24.6216 27.9799 27.0156C24.7428 29.0106 22.7573 30.9581 21.2254 32.5826C19.3539 31.0697 15.6512 28.5 9.5 28.5H7.125V30.875C7.125 35.4207 8.76612 39.1139 9.35275 40.375C8.759 41.6266 7.125 45.1891 7.125 49.875V52.25H9.5C15.6038 52.25 19.3515 49.6707 21.2277 48.1674C24.0374 51.0625 28.044 54.1144 33.1027 56.4062C32.8795 57.8811 32.7038 59.9403 33.3236 62.3438L33.7701 64.125H35.625C38.5557 64.125 41.0804 62.6691 43.1205 61.3795C44.7901 60.3203 45.5976 59.5793 46.0156 59.2254C55.461 58.8929 61.4911 53.7985 64.7188 48.7611C68.058 43.5575 68.875 38.3705 68.875 38.3705L68.9486 37.7768L68.7277 37.183C68.7277 37.183 63.289 22.2466 48.5402 21.5223C46.9727 19.6223 44.7806 18.0452 41.7121 16.7722C38.0831 15.2712 33.5184 14.25 28.5 14.25H24.9375ZM31.8393 19.2969C34.8365 19.6294 37.639 20.235 39.8549 21.1518C42.8901 22.4058 45.0039 24.2036 45.4955 25.0111L46.1652 26.125H47.5C59.3655 26.125 63.6334 37.3587 63.9777 38.2969C63.8115 39.1685 63.1227 42.4816 60.7121 46.2389C57.9548 50.5329 53.4921 54.625 45.125 54.625H44.2344L43.567 55.2188C43.567 55.2188 42.313 56.2875 40.5983 57.3705C39.6958 57.9381 38.9286 58.0402 38 58.4108C38.095 57.3254 38 55.7389 38 55.7389L38.5201 53.6608L36.5893 52.991C30.7087 50.7466 25.707 46.5168 23.1562 43.567L21.5223 41.6361L19.741 43.4174C19.741 43.4174 16.5775 45.6356 12.4688 46.683C13.0815 43.8995 14.0268 41.4152 14.0268 41.4152L14.5469 40.375L14.0268 39.3348C14.0268 39.3348 12.9984 36.6083 12.3951 33.6941C16.7723 34.6608 19.741 37.3326 19.741 37.3326L21.5223 39.1139L23.1562 37.183C25.2819 34.7819 31.0056 28.7969 39.4108 27.683L38.741 23.0066C36.4681 23.3059 34.485 23.9637 32.5826 24.7166C32.4615 22.7216 32.3594 21.0045 31.8393 19.2969ZM53.4375 35.625C52.4927 35.625 51.5865 36.0003 50.9184 36.6684C50.2503 37.3365 49.875 38.2427 49.875 39.1875C49.875 40.1323 50.2503 41.0385 50.9184 41.7066C51.5865 42.3747 52.4927 42.75 53.4375 42.75C54.3823 42.75 55.2885 42.3747 55.9566 41.7066C56.6247 41.0385 57 40.1323 57 39.1875C57 38.2427 56.6247 37.3365 55.9566 36.6684C55.2885 36.0003 54.3823 35.625 53.4375 35.625Z" fill="black"/>
</svg>
