<svg width="74" height="74" viewBox="0 0 74 74" fill="none" xmlns="http://www.w3.org/2000/svg">
<path d="M16.8535 53.8628L35.3466 35.3697L38.6188 38.6396L20.1234 57.1326L16.8535 53.8628Z" fill="black"/>
<path d="M39.3125 69.375C39.0196 69.3757 38.7293 69.3208 38.4569 69.2131C38.078 69.0621 37.7459 68.8136 37.4941 68.4927C37.2423 68.1719 37.0798 67.7902 37.0231 67.3863L34.7106 51.1988L39.3356 50.5513L41.07 62.7381L48.5625 56.7025V39.3125C48.5608 39.0082 48.6191 38.7065 48.7342 38.4247C48.8492 38.143 49.0188 37.8867 49.2331 37.6706L58.645 28.2588C60.5844 26.3326 62.1225 24.0409 63.1704 21.5164C64.2183 18.9919 64.7552 16.2846 64.75 13.5513V9.25002H60.4488C57.7154 9.24483 55.0081 9.78172 52.4836 10.8296C49.9591 11.8775 47.6675 13.4157 45.7413 15.355L36.3294 24.7669C36.1133 24.9812 35.857 25.1508 35.5753 25.2659C35.2935 25.3809 34.9919 25.4393 34.6875 25.4375H17.2975L11.2619 32.9763L23.4488 34.7106L22.8013 39.3356L6.61376 37.0231C6.20987 36.9665 5.82814 36.804 5.5073 36.5522C5.18646 36.3004 4.93792 35.9683 4.78689 35.5894C4.63399 35.2079 4.58553 34.7925 4.6465 34.3861C4.70746 33.9796 4.87566 33.5968 5.13376 33.2769L14.3838 21.7144C14.5968 21.4376 14.8697 21.2127 15.1821 21.0565C15.4945 20.9003 15.8383 20.8169 16.1875 20.8125H33.7394L42.4575 12.0713C44.8143 9.7012 47.6182 7.82259 50.7066 6.54437C53.795 5.26616 57.1063 4.61376 60.4488 4.62502H64.75C65.9766 4.62502 67.153 5.1123 68.0204 5.97965C68.8877 6.84701 69.375 8.0234 69.375 9.25002V13.5513C69.3863 16.8937 68.7339 20.2051 67.4557 23.2934C66.1774 26.3818 64.2988 29.1857 61.9288 31.5425L53.1875 40.2606V57.8125C53.1859 58.1599 53.1061 58.5024 52.9539 58.8147C52.8018 59.1269 52.5813 59.4009 52.3088 59.6163L40.7463 68.8663C40.3394 69.1927 39.8341 69.372 39.3125 69.375Z" fill="black"/>
</svg>
