<svg width="71" height="71" viewBox="0 0 71 71" fill="none" xmlns="http://www.w3.org/2000/svg">
<g clip-path="url(#clip0_16_65)">
<path d="M31.6147 18C20.6388 18 13.6843 25.717 11.0113 34.4661L10.6565 35.6389H2.95685C2.17265 35.6389 1.42056 35.9478 0.866043 36.4977C0.311525 37.0475 0 37.7933 0 38.5709C0 42.5878 1.12361 46.3583 3.08696 49.2024C3.77886 50.1992 4.60087 51.1199 5.54115 51.8881L3.77295 56.1395C3.36889 57.114 3.21312 58.1722 3.3194 59.2205C3.42568 60.2689 3.79073 61.2752 4.3823 62.1504C4.97388 63.0257 5.77375 63.743 6.71126 64.239C7.64877 64.7349 8.69504 64.9943 9.75762 64.9941H16.103C18.6104 64.9941 20.8931 63.5633 21.9576 61.3115L23.7554 57.5292C29.146 58.2195 34.6038 58.2195 39.9944 57.5292L41.7863 61.3115C42.8507 63.5633 45.1394 65 47.6409 65H53.9271C54.9917 65.0024 56.0404 64.744 56.9801 64.2478C57.9198 63.7516 58.7213 63.033 59.3135 62.1557C59.9056 61.2784 60.2701 60.2696 60.3745 59.2191C60.4788 58.1685 60.3199 57.1086 59.9118 56.1336L58.7172 53.2603H64.424C68.0727 53.2603 71 50.1875 71 46.6222V42.9865C71 37.4744 66.6593 32.7245 61.0058 32.7245H52.3482C49.1902 24.6029 41.7449 18.0059 31.6147 18.0059V18ZM56.7125 47.3962L54.1518 38.5944H61.0058C63.117 38.5944 65.0863 40.4357 65.0863 42.9924V46.6281C65.0832 46.8417 64.9962 47.0458 64.8438 47.1969C64.6782 47.3611 64.5186 47.4021 64.424 47.4021H56.7125V47.3962ZM52.839 54.5151L54.4416 58.3678C54.4767 58.4516 54.4903 58.5427 54.4813 58.633C54.4723 58.7233 54.441 58.8101 54.3901 58.8855C54.3392 58.9609 54.2703 59.0227 54.1895 59.0654C54.1088 59.108 54.0186 59.1303 53.9271 59.1301H47.6468C47.5403 59.1312 47.4358 59.1019 47.3456 59.0457C47.2555 58.9896 47.1835 58.909 47.1382 58.8135L46.0205 56.462C48.315 55.9401 50.5918 55.2892 52.839 54.5151ZM17.7293 56.462L16.6057 58.8135C16.5617 58.9092 16.491 58.9904 16.4019 59.0476C16.3128 59.1047 16.2091 59.1354 16.103 59.136H9.75762C9.66611 59.1361 9.57597 59.1139 9.4952 59.0712C9.41444 59.0285 9.34555 58.9668 9.29465 58.8913C9.24376 58.8159 9.21242 58.7292 9.20343 58.6389C9.19444 58.5486 9.20808 58.4575 9.24313 58.3737L10.8517 54.5034C13.1166 55.2892 15.4111 55.9401 17.7293 56.4679V56.462ZM8.86465 41.5029L7.67008 45.4318C6.95244 44.2165 6.45226 42.8873 6.19165 41.5029H8.86465ZM16.6707 36.1667C18.8411 29.0654 24.0215 23.864 31.6147 23.864C39.3262 23.864 45.1571 29.2002 47.286 36.1491L51.0117 48.9385C38.6366 53.2566 25.1468 53.2628 12.7677 48.9561L16.6707 36.1667Z" fill="black"/>
</g>
<defs>
<clipPath id="clip0_16_65">
<rect width="71" height="71" fill="white"/>
</clipPath>
</defs>
</svg>
