<svg width="49" height="49" viewBox="0 0 49 49" fill="none" xmlns="http://www.w3.org/2000/svg">
<path d="M44.2497 37.8797C42.9372 36.7096 41.7881 35.3682 40.8333 33.8917C39.791 31.8535 39.1663 29.6276 38.9958 27.3447V20.6208C39.0048 17.0351 37.7041 13.5695 35.3381 10.8752C32.9722 8.1809 29.7037 6.44329 26.1469 5.98887V4.23304C26.1469 3.75112 25.9555 3.28894 25.6147 2.94817C25.2739 2.6074 24.8118 2.41595 24.3298 2.41595C23.8479 2.41595 23.3857 2.6074 23.045 2.94817C22.7042 3.28894 22.5128 3.75112 22.5128 4.23304V6.01609C18.9878 6.50327 15.7589 8.25139 13.424 10.9367C11.0891 13.6219 9.80642 17.0624 9.81359 20.6208V27.3447C9.64312 29.6276 9.0184 31.8535 7.97609 33.8917C7.03812 35.3648 5.90747 36.7061 4.61415 37.8797C4.46896 38.0073 4.3526 38.1643 4.2728 38.3403C4.19301 38.5163 4.15161 38.7073 4.15137 38.9005V40.7517C4.15137 41.1126 4.29477 41.4588 4.55003 41.7141C4.80529 41.9694 5.15149 42.1128 5.51248 42.1128H43.3514C43.7124 42.1128 44.0586 41.9694 44.3138 41.7141C44.5691 41.4588 44.7125 41.1126 44.7125 40.7517V38.9005C44.7122 38.7073 44.6708 38.5163 44.591 38.3403C44.5113 38.1643 44.3949 38.0073 44.2497 37.8797ZM6.98248 39.3905C8.24887 38.1672 9.36388 36.7963 10.3036 35.3072C11.6165 32.8456 12.3826 30.1296 12.5494 27.3447V20.6208C12.4954 19.0256 12.763 17.4359 13.3362 15.9463C13.9094 14.4567 14.7765 13.0977 15.8858 11.9501C16.9952 10.8026 18.3241 9.89004 19.7935 9.2668C21.2629 8.64356 22.8426 8.32237 24.4387 8.32237C26.0348 8.32237 27.6146 8.64356 29.084 9.2668C30.5533 9.89004 31.8823 10.8026 32.9916 11.9501C34.101 13.0977 34.9681 14.4567 35.5412 15.9463C36.1144 17.4359 36.382 19.0256 36.328 20.6208V27.3447C36.4949 30.1296 37.2609 32.8456 38.5739 35.3072C39.5136 36.7963 40.6286 38.1672 41.895 39.3905H6.98248Z" fill="black"/>
<path d="M24.5 46.6589C25.3574 46.6391 26.1802 46.3168 26.8228 45.7489C27.4655 45.1809 27.8866 44.404 28.0116 43.5555H20.8522C20.9808 44.4271 21.4216 45.2222 22.0926 45.7931C22.7636 46.3639 23.6191 46.6716 24.5 46.6589V46.6589Z" fill="black"/>
</svg>
