<svg width="71" height="71" viewBox="0 0 71 71" fill="none" xmlns="http://www.w3.org/2000/svg">
<path d="M16.1525 66.5625H51.8433C55.6506 66.5625 58.7347 63.474 58.7347 59.6666V30.6809C64.9783 30.2327 68.657 23.2436 65.28 17.7899L63.3497 14.6748C62.5923 13.451 61.5347 12.4409 60.2774 11.7404C59.0201 11.0399 57.6047 10.6722 56.1654 10.6722H50.9469V8.52888C50.9475 7.9918 50.8422 7.45987 50.6371 6.96351C50.4319 6.46715 50.131 6.01608 49.7514 5.6361C49.3719 5.25613 48.9211 4.95469 48.425 4.74902C47.9288 4.54336 47.397 4.4375 46.86 4.4375C44.2873 4.4375 41.8199 5.4595 40.0007 7.27867C38.1816 9.09785 37.1596 11.5652 37.1596 14.1379V27.1664C32.2961 27.7122 28.5952 30.0596 25.8795 33.3256C22.8265 36.991 21.0426 41.7524 19.9776 46.3009C19.0624 50.4041 18.5423 54.5856 18.4245 58.788C18.3801 60.0838 18.3801 61.2197 18.389 62.125H16.1569C14.7368 62.1252 13.3475 61.7103 12.16 60.9315C10.9725 60.1527 10.0385 59.0438 9.47274 57.7412C8.90701 56.4387 8.73427 54.9991 8.97574 53.5997C9.2172 52.2003 9.86236 50.9019 10.8319 49.8642L14.3686 46.0701C16.8595 43.3987 18.2164 39.8649 18.1535 36.2129C18.0906 32.5609 16.6128 29.0759 14.0313 26.4919L10.5612 23.0173C10.3565 22.8054 10.1117 22.6364 9.84101 22.5201C9.57031 22.4038 9.27917 22.3426 8.98456 22.34C8.68996 22.3375 8.39779 22.3936 8.12512 22.5052C7.85244 22.6167 7.60471 22.7815 7.39639 22.9898C7.18807 23.1981 7.02332 23.4459 6.91176 23.7185C6.80019 23.9912 6.74406 24.2834 6.74662 24.578C6.74918 24.8726 6.81038 25.1637 6.92667 25.4344C7.04295 25.7051 7.21198 25.95 7.42389 26.1546L10.8985 29.6292C12.668 31.3993 13.6811 33.7873 13.7241 36.2898C13.7672 38.7924 12.8368 41.2138 11.1292 43.0438L7.58808 46.8378C6.03138 48.5081 4.99605 50.5964 4.60911 52.8466C4.22217 55.0968 4.50044 57.411 5.40978 59.5053C6.31912 61.5996 7.81999 63.3829 9.72827 64.6366C11.6365 65.8902 13.8692 66.5595 16.1525 66.5625ZM46.5094 8.88831V12.8909C46.5094 13.4794 46.7431 14.0437 47.1592 14.4598C47.5753 14.8759 48.1397 15.1097 48.7281 15.1097H56.1654C57.5543 15.1097 58.8456 15.8286 59.5823 17.0134L61.5126 20.1285C61.8911 20.7371 62.0999 21.4359 62.1173 22.1524C62.1346 22.8689 61.9599 23.577 61.6113 24.2032C61.2626 24.8294 60.7528 25.3509 60.1346 25.7135C59.5164 26.0762 58.8124 26.2668 58.0957 26.2656H56.5204C55.9319 26.2656 55.3676 26.4993 54.9515 26.9154C54.5354 27.3315 54.3016 27.8959 54.3016 28.4843V59.6666C54.3016 60.3186 54.0426 60.9439 53.5816 61.405C53.1206 61.866 52.4953 62.125 51.8433 62.125H49.3893V59.6666C49.3899 58.147 49.0911 56.6422 48.51 55.2382C47.9289 53.8341 47.0768 52.5583 46.0025 51.4835C44.9282 50.4088 43.6527 49.5563 42.2489 48.9747C40.845 48.393 39.3403 48.0936 37.8208 48.0936H33.9246C33.3362 48.0936 32.7718 48.3274 32.3557 48.7435C31.9397 49.1596 31.7059 49.7239 31.7059 50.3124C31.7059 50.9008 31.9397 51.4652 32.3557 51.8813C32.7718 52.2974 33.3362 52.5311 33.9246 52.5311H37.8208C41.7568 52.5311 44.9518 55.7261 44.9518 59.6666V62.125H22.8265C22.8131 61.2686 22.8176 60.1858 22.8575 58.9344C22.964 55.7306 23.3235 51.5016 24.2997 47.3082C25.2848 43.0837 26.8601 39.0766 29.2875 36.1656C31.6438 33.3345 34.8343 31.4841 39.3783 31.4841C39.9668 31.4841 40.5311 31.2503 40.9472 30.8342C41.3633 30.4181 41.5971 29.8538 41.5971 29.2653V14.1379C41.5971 11.3511 43.767 9.06581 46.5094 8.88831Z" fill="black"/>
</svg>
