<svg width="72" height="63" viewBox="0 0 72 63" fill="none" xmlns="http://www.w3.org/2000/svg">
<path d="M42.2328 7.875C41.6433 7.875 41.0779 8.08242 40.6611 8.45163C40.2442 8.82085 40.01 9.32161 40.01 9.84375V13.7812C40.01 14.3034 40.2442 14.8042 40.6611 15.1734C41.0779 15.5426 41.6433 15.75 42.2328 15.75C42.8223 15.75 43.3877 15.5426 43.8046 15.1734C44.2214 14.8042 44.4556 14.3034 44.4556 13.7812C44.4556 13.2591 44.6898 12.7583 45.1066 12.3891C45.5235 12.0199 46.0889 11.8125 46.6784 11.8125C47.2679 11.8125 47.8333 12.0199 48.2501 12.3891C48.667 12.7583 48.9012 13.2591 48.9012 13.7812C48.9016 14.7549 48.6304 15.7136 48.1114 16.5719C47.5925 17.4303 46.842 18.1617 45.9268 18.7011C45.0116 19.2405 43.96 19.5711 42.8657 19.6635C41.7713 19.7559 40.6682 19.6072 39.6544 19.2307C39.2617 22.3475 38.3494 25.3955 36.947 28.2752C35.1199 31.9725 32.7193 34.6106 30.5543 36.7487C29.0073 38.2804 28.007 40.4775 27.4157 43.092C26.8245 45.6908 26.6733 48.5297 26.6733 51.1875C26.6733 52.3806 26.1843 53.8217 25.2952 55.125H44.0777C43.6151 53.9746 42.7624 52.9788 41.6364 52.274C40.5104 51.5692 39.166 51.1897 37.7872 51.1875H35.5645C34.9749 51.1875 34.4096 50.9801 33.9927 50.6109C33.5759 50.2417 33.3417 49.7409 33.3417 49.2188C33.3417 48.6966 33.5759 48.1958 33.9927 47.8266C34.4096 47.4574 34.9749 47.25 35.5645 47.25H37.7872C38.5474 47.25 39.2898 47.3169 40.01 47.4469V41.3438C40.01 40.8216 40.2442 40.3208 40.6611 39.9516C41.0779 39.5824 41.6433 39.375 42.2328 39.375C42.8223 39.375 43.3877 39.5824 43.8046 39.9516C44.2214 40.3208 44.4556 40.8216 44.4556 41.3438V49.2188C46.5895 50.6362 48.1276 52.7231 48.6789 55.125H57.4144C56.9546 53.973 56.1026 52.9756 54.976 52.2704C53.8493 51.5652 52.5035 51.1869 51.1239 51.1875C50.5344 51.1875 49.969 50.9801 49.5522 50.6109C49.1353 50.2417 48.9012 49.7409 48.9012 49.2188V21.6562C48.9012 21.1341 49.1353 20.6333 49.5522 20.2641C49.969 19.8949 50.5344 19.6875 51.1239 19.6875H55.5695C56.159 19.6875 56.7244 19.4801 57.1412 19.1109C57.5581 18.7417 57.7923 18.2409 57.7923 17.7188V14.0411C57.7924 13.7009 57.6929 13.3664 57.5036 13.0704C57.3142 12.7744 57.0415 12.5268 56.712 12.3519L48.8122 8.15456C48.467 7.9715 48.0721 7.87488 47.6697 7.875H42.2328ZM17.7822 55.125C19.1781 55.125 20.2539 54.5265 21.0497 53.6484C21.8944 52.7074 22.2278 51.6521 22.2278 51.1875C22.2278 48.4313 22.3834 45.2931 23.0546 42.3163C23.7259 39.3632 24.9529 36.3904 27.2379 34.1263C29.2695 32.1182 31.3189 29.8344 32.8838 26.6884C34.4353 23.5502 35.5645 19.4434 35.5645 13.7812V9.84375C35.5645 8.27732 36.267 6.77504 37.5176 5.6674C38.7681 4.55976 40.4643 3.9375 42.2328 3.9375H47.6697C48.8788 3.9376 50.0651 4.22886 51.1017 4.78012L59.0015 8.9775C59.9885 9.50229 60.8054 10.2445 61.3725 11.1318C61.9397 12.0192 62.2378 13.0215 62.2378 14.0411V17.7188C62.2378 19.2852 61.5353 20.7875 60.2847 21.8951C59.0342 23.0027 57.3381 23.625 55.5695 23.625H53.3467V47.4469C55.8571 47.9007 58.1132 49.1089 59.7335 50.8668C61.3537 52.6247 62.2384 54.8245 62.2378 57.0938C62.2378 57.6159 62.0037 58.1167 61.5868 58.4859C61.17 58.8551 60.6046 59.0625 60.0151 59.0625H16.6708C14.0474 59.0632 11.4933 58.3165 9.38594 56.9326C7.27855 55.5488 5.72965 53.6012 4.9681 51.3777C4.20654 49.1542 4.27274 46.7726 5.1569 44.585C6.04105 42.3974 7.69628 40.5196 9.87799 39.2293C10.1204 39.0802 10.3939 38.9753 10.6826 38.9208C10.9713 38.8663 11.2693 38.8633 11.5593 38.9119C11.8493 38.9605 12.1255 39.0598 12.3717 39.2039C12.618 39.3481 12.8293 39.5342 12.9934 39.7515C13.1576 39.9688 13.2712 40.2128 13.3277 40.4694C13.3842 40.726 13.3824 40.99 13.3225 41.246C13.2626 41.5019 13.1457 41.7448 12.9787 41.9603C12.8117 42.1759 12.5979 42.3598 12.3497 42.5014C10.9602 43.322 9.90573 44.5169 9.34222 45.9094C8.77871 47.3019 8.73608 48.818 9.22065 50.2336C9.70521 51.6492 10.6912 52.8891 12.0329 53.77C13.3746 54.6509 15.0007 55.126 16.6708 55.125H17.7822Z" fill="black"/>
</svg>
