<svg width="67" height="67" viewBox="0 0 67 67" fill="none" xmlns="http://www.w3.org/2000/svg">
<path d="M55.8333 22.3334H48.3889V13.0278C48.3889 12.5342 48.1928 12.0608 47.8438 11.7118C47.4948 11.3628 47.0214 11.1667 46.5278 11.1667H5.58334C5.08974 11.1667 4.61636 11.3628 4.26734 11.7118C3.91831 12.0608 3.72223 12.5342 3.72223 13.0278V46.5278C3.72223 47.0214 3.91831 47.4948 4.26734 47.8438C4.61636 48.1928 5.08974 48.3889 5.58334 48.3889H7.44445V14.8889H44.6667V36.6639C45.6156 36.4219 46.5907 36.2969 47.57 36.2917H48.3889V26.0556H55.8333C56.8205 26.0556 57.7673 26.4477 58.4653 27.1458C59.1634 27.8438 59.5556 28.7906 59.5556 29.7778V31.6389H52.1111V35.3611H59.5556V44.6667H55.0889C54.436 43.15 53.3529 41.8579 51.9737 40.95C50.5944 40.0421 48.9793 39.5583 47.3281 39.5583C45.6768 39.5583 44.0617 40.0421 42.6825 40.95C41.3032 41.8579 40.2202 43.15 39.5672 44.6667H26.8558C26.2153 43.1389 25.1361 41.8354 23.7546 40.9211C22.3732 40.0068 20.7516 39.5227 19.095 39.53C17.521 39.5647 15.9908 40.0545 14.6891 40.9402C13.3875 41.8258 12.3702 43.0695 11.7601 44.5208C11.15 45.9722 10.9732 47.5691 11.2512 49.1188C11.5291 50.6684 12.2498 52.1044 13.3263 53.2533C14.4028 54.4022 15.7889 55.2147 17.3172 55.5928C18.8455 55.9709 20.4505 55.8983 21.9385 55.3839C23.4264 54.8694 24.7336 53.9351 25.702 52.6938C26.6704 51.4525 27.2586 49.9573 27.3956 48.3889H39.0833C39.3198 50.4245 40.2961 52.3022 41.8264 53.665C43.3568 55.0279 45.3346 55.7809 47.3839 55.7809C49.4332 55.7809 51.411 55.0279 52.9413 53.665C54.4717 52.3022 55.448 50.4245 55.6844 48.3889H61.4167C61.9103 48.3889 62.3837 48.1928 62.7327 47.8438C63.0817 47.4948 63.2778 47.0214 63.2778 46.5278V29.7778C63.2778 27.8034 62.4935 25.9099 61.0974 24.5138C59.7012 23.1177 57.8077 22.3334 55.8333 22.3334ZM19.095 52.1111C18.4904 52.1504 17.8842 52.0652 17.3139 51.8608C16.7435 51.6564 16.2212 51.3372 15.7791 50.9229C15.337 50.5087 14.9847 50.0081 14.7438 49.4522C14.5029 48.8963 14.3786 48.2968 14.3786 47.691C14.3786 47.0851 14.5029 46.4857 14.7438 45.9298C14.9847 45.3739 15.337 44.8733 15.7791 44.459C16.2212 44.0447 16.7435 43.7255 17.3139 43.5212C17.8842 43.3168 18.4904 43.2316 19.095 43.2709C19.6996 43.2316 20.3058 43.3168 20.8761 43.5212C21.4465 43.7255 21.9688 44.0447 22.4109 44.459C22.853 44.8733 23.2053 45.3739 23.4462 45.9298C23.6871 46.4857 23.8114 47.0851 23.8114 47.691C23.8114 48.2968 23.6871 48.8963 23.4462 49.4522C23.2053 50.0081 22.853 50.5087 22.4109 50.9229C21.9688 51.3372 21.4465 51.6564 20.8761 51.8608C20.3058 52.0652 19.6996 52.1504 19.095 52.1111ZM47.3281 52.1111C46.4621 52.0674 45.6279 51.7705 44.9291 51.2571C44.2303 50.7438 43.6975 50.0366 43.3968 49.2234C43.0961 48.4101 43.0408 47.5264 43.2376 46.6819C43.4344 45.8375 43.8747 45.0693 44.504 44.4728C45.1333 43.8762 45.9238 43.4775 46.7776 43.326C47.6314 43.1745 48.5108 43.2769 49.3069 43.6206C50.103 43.9642 50.7807 44.534 51.256 45.2592C51.7314 45.9844 51.9834 46.8332 51.9808 47.7003C51.9467 48.9015 51.4379 50.0403 50.5658 50.867C49.6937 51.6938 48.5294 52.1412 47.3281 52.1111Z" fill="black"/>
</svg>
