<svg width="69" height="65" viewBox="0 0 69 65" fill="none" xmlns="http://www.w3.org/2000/svg">
<g clip-path="url(#clip0_16_63)">
<path d="M19.0981 53C16.7724 53.0001 14.5342 52.1644 12.8401 50.6633C11.1461 49.1622 10.1237 47.1088 9.98164 44.922L9.96503 44.3964V40.4856C8.22584 40.4859 6.51687 40.0573 5.00804 39.2424C3.49922 38.4276 2.24309 37.2549 1.36457 35.8409C0.486049 34.4269 0.0157334 32.8209 0.00038794 31.1826C-0.0149575 29.5443 0.425201 27.9308 1.2771 26.5024C2.129 25.0741 3.36296 23.8807 4.85629 23.0409C6.34962 22.2011 8.05029 21.7441 9.78922 21.7155C11.5281 21.6868 13.2447 22.0875 14.7683 22.8776C16.2919 23.6677 17.5694 24.8198 18.4737 26.2192C20.2215 25.4284 22.1173 24.9692 24.0532 24.8677L24.9101 24.8426H38.1946L39.0182 24.8645L39.8319 24.9271L40.2537 24.9803L40.619 24.4578L41.0541 23.9009L35.1524 18.3414C32.8276 16.1514 32.5852 12.7475 34.4218 10.3009L34.7639 9.8817L35.1524 9.48124C37.6101 7.16608 41.5223 7.04094 44.1361 9.1152L44.5579 9.48124L62.5318 26.4163C64.3523 28.1314 65.6045 30.3078 66.1362 32.681C66.6678 35.0541 66.456 37.5216 65.5264 39.7834C64.5968 42.0452 62.9896 44.0038 60.9002 45.4209C58.8108 46.8381 56.3292 47.6528 53.7574 47.7659L53.0101 47.7784L52.4057 47.7565L52.3193 47.9567C51.6791 49.2834 50.6917 50.4352 49.4498 51.3042C48.2078 52.1732 46.752 52.7308 45.2188 52.9249L44.5811 52.9844L44.0032 53H19.0981ZM41.0341 12.8007C40.7402 12.5212 40.3457 12.3559 39.9286 12.3373C39.5114 12.3187 39.1021 12.4483 38.7815 12.7003C38.4609 12.9524 38.2524 13.3086 38.1972 13.6986C38.142 14.0885 38.2442 14.4837 38.4835 14.8061L38.6761 15.0251L48.0019 23.8102L45.883 25.8188C45.1855 26.4758 44.6044 27.2079 44.146 27.9963L43.8239 28.597L42.9405 30.4241L40.888 29.8828C40.233 29.7098 39.5608 29.6007 38.8821 29.5574L38.1913 29.5355H24.9101C22.5853 29.5355 20.4498 30.2864 18.756 31.5378L18.2811 31.9133L17.7331 32.4138L17.4243 32.7267L17.0556 33.1459L16.6538 33.6684L16.5143 33.8686C16.3781 34.0657 16.2486 34.2722 16.1324 34.4818L15.9397 34.8322L15.7338 35.2609L15.6209 35.5237L15.4515 35.9679L15.2689 36.5436C15.1835 36.8498 15.1148 37.16 15.063 37.4728L15.0264 37.7325L14.9666 38.3238L14.9467 38.9213V44.3964C14.9467 46.4237 16.5807 48.0881 18.673 48.2883L19.0981 48.3071H33.2162V47.5375C33.2168 46.5698 32.8365 45.6363 32.1488 44.9174C31.4611 44.1985 30.515 43.7454 29.4932 43.6455L29.0681 43.6267H25.747C25.1114 43.6328 24.4974 43.4098 24.0307 43.0033C23.564 42.5968 23.2799 42.0376 23.2366 41.4402C23.1933 40.8428 23.3941 40.2525 23.7978 39.79C24.2016 39.3275 24.7777 39.028 25.4083 38.9526L25.747 38.9338H29.0681C31.3939 38.9337 33.632 39.7695 35.3261 41.2706C37.0202 42.7717 38.0425 44.8251 38.1846 47.0119L38.2012 47.5375L38.1979 48.3071H44.0032C45.9693 48.3071 47.6399 47.0119 48.0517 45.2567L48.1181 44.875L48.4502 42.247L51.1802 42.8665C52.8912 43.2588 54.6903 43.1286 56.3176 42.4945C57.9449 41.8604 59.316 40.7553 60.2328 39.339C61.1496 37.9226 61.5646 36.2684 61.4179 34.6153C61.2712 32.9621 60.5703 31.3957 59.4166 30.1425L59.0114 29.7358L41.0341 12.8007ZM9.96503 26.4101C8.69099 26.4176 7.46843 26.8847 6.54875 27.7153C5.62907 28.5459 5.08216 29.6769 5.02049 30.8757C4.95882 32.0745 5.38707 33.25 6.21718 34.1605C7.04729 35.071 8.21617 35.6473 9.48347 35.7708L9.96503 35.7896L10.3436 35.774L10.3602 35.6957C10.4765 35.2264 10.616 34.7728 10.7787 34.3254L11.1009 33.5276L11.4529 32.7893L11.6422 32.4357L12.0739 31.7037L12.3662 31.2657L12.8478 30.6086L13.0935 30.302L13.4522 29.8828L13.8806 29.4229L14.3788 28.9317C13.6814 27.6803 12.4193 26.773 10.9348 26.4977L10.4333 26.4288L9.96503 26.4069V26.4101Z" fill="black"/>
</g>
<defs>
<clipPath id="clip0_16_63">
<rect width="69" height="65" fill="white"/>
</clipPath>
</defs>
</svg>
