<svg width="55" height="55" viewBox="0 0 55 55" fill="none" xmlns="http://www.w3.org/2000/svg">
<path d="M16.0416 41.25C13.5208 41.25 11.4812 43.3125 11.4812 45.8333C11.4812 48.3541 13.5208 50.4166 16.0416 50.4166C18.5625 50.4166 20.625 48.3541 20.625 45.8333C20.625 43.3125 18.5625 41.25 16.0416 41.25ZM2.29163 4.58331V9.16665H6.87496L15.125 26.5604L12.0312 32.175C11.6645 32.8166 11.4583 33.5729 11.4583 34.375C11.4583 36.8958 13.5208 38.9583 16.0416 38.9583H43.5416V34.375H17.0041C16.6833 34.375 16.4312 34.1229 16.4312 33.8021L16.5 33.5271L18.5625 29.7916H35.6354C37.3541 29.7916 38.8666 28.8521 39.6458 27.4312L47.85 12.5583C48.0333 12.2375 48.125 11.8479 48.125 11.4583C48.125 10.1979 47.0937 9.16665 45.8333 9.16665H11.9395L9.78538 4.58331H2.29163ZM38.9583 41.25C36.4375 41.25 34.3979 43.3125 34.3979 45.8333C34.3979 48.3541 36.4375 50.4166 38.9583 50.4166C41.4791 50.4166 43.5416 48.3541 43.5416 45.8333C43.5416 43.3125 41.4791 41.25 38.9583 41.25Z" fill="black"/>
<path fill-rule="evenodd" clip-rule="evenodd" d="M40 2.16669C32.9125 2.16669 27.1666 7.91252 27.1666 15C27.1666 22.0875 32.9125 27.8334 40 27.8334C47.0875 27.8334 52.8333 22.0875 52.8333 15C52.8333 7.91252 47.0875 2.16669 40 2.16669ZM41.1666 19.6667C41.1666 19.9761 41.0437 20.2729 40.8249 20.4916C40.6061 20.7104 40.3094 20.8334 40 20.8334C39.6905 20.8334 39.3938 20.7104 39.175 20.4916C38.9562 20.2729 38.8333 19.9761 38.8333 19.6667V16.1667H35.3333C35.0239 16.1667 34.7271 16.0438 34.5083 15.825C34.2895 15.6062 34.1666 15.3094 34.1666 15C34.1666 14.6906 34.2895 14.3939 34.5083 14.1751C34.7271 13.9563 35.0239 13.8334 35.3333 13.8334H38.8333V10.3334C38.8333 10.0239 38.9562 9.72719 39.175 9.5084C39.3938 9.2896 39.6905 9.16669 40 9.16669C40.3094 9.16669 40.6061 9.2896 40.8249 9.5084C41.0437 9.72719 41.1666 10.0239 41.1666 10.3334V13.8334H44.6666C44.976 13.8334 45.2728 13.9563 45.4916 14.1751C45.7104 14.3939 45.8333 14.6906 45.8333 15C45.8333 15.3094 45.7104 15.6062 45.4916 15.825C45.2728 16.0438 44.976 16.1667 44.6666 16.1667H41.1666V19.6667Z" fill="white"/>
</svg>
