<svg width="49" height="49" viewBox="0 0 49 49" fill="none" xmlns="http://www.w3.org/2000/svg">
<path d="M24.5 46.6589C25.3574 46.6391 26.1802 46.3168 26.8228 45.7489C27.4655 45.1809 27.8866 44.404 28.0116 43.5555H20.8522C20.9808 44.4271 21.4216 45.2222 22.0926 45.7931C22.7636 46.3639 23.6191 46.6716 24.5 46.6589V46.6589Z" fill="black"/>
<path d="M44.2497 37.8797C42.9372 36.7096 41.7881 35.3682 40.8333 33.8917C39.791 31.8535 39.1663 29.6276 38.9958 27.3447V20.6208C38.9903 19.8041 38.9174 18.9892 38.778 18.1844C37.7067 17.9703 36.6771 17.5842 35.7291 17.0411C36.0905 18.2046 36.274 19.4161 36.2736 20.6344V27.3583C36.4404 30.1432 37.2065 32.8592 38.5194 35.3208C39.4591 36.8099 40.5741 38.1808 41.8405 39.4042H6.98248C8.24887 38.1808 9.36388 36.8099 10.3036 35.3208C11.6165 32.8592 12.3826 30.1432 12.5494 27.3583V20.6208C12.5423 19.0456 12.8459 17.4844 13.4429 16.0267C14.0399 14.569 14.9186 13.2433 16.0287 12.1257C17.1388 11.008 18.4584 10.1203 19.912 9.51335C21.3657 8.90641 22.9247 8.59216 24.5 8.58859C26.8054 8.59044 29.059 9.27222 30.9789 10.5486C30.7672 9.77138 30.6484 8.97182 30.625 8.16665V7.30915C29.2038 6.61003 27.677 6.15015 26.1061 5.94804V4.23304C26.1061 3.75112 25.9146 3.28894 25.5739 2.94817C25.2331 2.6074 24.7709 2.41595 24.289 2.41595C23.8071 2.41595 23.3449 2.6074 23.0041 2.94817C22.6634 3.28894 22.4719 3.75112 22.4719 4.23304V6.01609C18.9544 6.51229 15.7352 8.2643 13.4086 10.9487C11.082 13.633 9.80505 17.0685 9.81359 20.6208V27.3447C9.64312 29.6276 9.0184 31.8535 7.97609 33.8917C7.03812 35.3648 5.90747 36.7061 4.61415 37.8797C4.46896 38.0073 4.3526 38.1643 4.2728 38.3403C4.19301 38.5163 4.15161 38.7073 4.15137 38.9005V40.7517C4.15137 41.1126 4.29477 41.4588 4.55003 41.7141C4.80529 41.9694 5.15149 42.1128 5.51248 42.1128H43.3514C43.7124 42.1128 44.0586 41.9694 44.3138 41.7141C44.5691 41.4588 44.7125 41.1126 44.7125 40.7517V38.9005C44.7122 38.7073 44.6708 38.5163 44.591 38.3403C44.5113 38.1643 44.3949 38.0073 44.2497 37.8797V37.8797Z" fill="black"/>
<path d="M40.8334 14.9722C44.592 14.9722 47.6389 11.9252 47.6389 8.16664C47.6389 4.40803 44.592 1.36108 40.8334 1.36108C37.0748 1.36108 34.0278 4.40803 34.0278 8.16664C34.0278 11.9252 37.0748 14.9722 40.8334 14.9722Z" fill="black"/>
</svg>
