<svg width="82" height="82" viewBox="0 0 82 82" fill="none" xmlns="http://www.w3.org/2000/svg">
<path d="M67.8822 8.96875H14.1178C11.275 8.96875 8.96875 11.275 8.96875 14.1178V67.8822C8.96875 70.725 11.275 73.0312 14.1178 73.0312H67.8822C70.725 73.0312 73.0312 70.725 73.0312 67.8822V14.1178C73.0312 11.275 70.725 8.96875 67.8822 8.96875ZM67.8822 67.9062C32.0232 67.8982 14.0938 67.8902 14.0938 67.8822C14.1018 32.0232 14.1098 14.0938 14.1178 14.0938C49.9768 14.1018 67.9062 14.1098 67.9062 14.1178C67.8982 49.9768 67.8902 67.9062 67.8822 67.9062ZM18.466 32.9842H27.9713V63.558H18.466V32.9842ZM23.2227 28.8041C26.2576 28.8041 28.732 26.3377 28.732 23.2947C28.732 22.5712 28.5895 21.8548 28.3127 21.1864C28.0358 20.518 27.63 19.9106 27.1184 19.399C26.6068 18.8874 25.9994 18.4816 25.331 18.2047C24.6626 17.9279 23.9462 17.7854 23.2227 17.7854C22.4992 17.7854 21.7827 17.9279 21.1143 18.2047C20.4459 18.4816 19.8385 18.8874 19.3269 19.399C18.8153 19.9106 18.4095 20.518 18.1327 21.1864C17.8558 21.8548 17.7133 22.5712 17.7133 23.2947C17.7053 26.3377 20.1717 28.8041 23.2227 28.8041ZM43.4264 48.4312C43.4264 44.4434 44.1871 40.5836 49.1279 40.5836C53.9967 40.5836 54.0688 45.14 54.0688 48.6875V63.558H63.566V46.7896C63.566 38.5576 61.7883 32.2234 52.1709 32.2234C47.5504 32.2234 44.4514 34.7619 43.1781 37.1643H43.05V32.9842H33.9291V63.558H43.4264V48.4312Z" fill="black"/>
</svg>
