<svg width="86" height="86" viewBox="0 0 86 86" fill="none" xmlns="http://www.w3.org/2000/svg">
<path d="M85.8065 3.68725C86.002 3.19885 86.0499 2.66382 85.9442 2.14849C85.8384 1.63315 85.5838 1.16017 85.2118 0.788189C84.8398 0.416204 84.3669 0.161572 83.8515 0.0558591C83.3362 -0.0498534 82.8012 -0.00199709 82.3128 0.193495L4.12265 31.4706C3.43406 31.7462 2.83485 32.2065 2.39099 32.8008C1.94713 33.395 1.67582 34.1002 1.60691 34.8387C1.53801 35.5772 1.67418 36.3204 2.00045 36.9865C2.32672 37.6526 2.83043 38.2157 3.45615 38.614L30.3043 55.6957L38.5334 68.628C38.9221 69.2148 39.5254 69.6257 40.2138 69.7724C40.9022 69.9192 41.6206 69.79 42.2148 69.4126C42.8089 69.0353 43.2313 68.44 43.3912 67.7545C43.5511 67.0691 43.4358 66.3483 43.0699 65.747L35.6739 54.1262L75.9541 13.846L65.7685 39.3127C65.6286 39.6419 65.5557 39.9956 65.5543 40.3532C65.5528 40.7108 65.6227 41.0652 65.7599 41.3954C65.8971 41.7257 66.0988 42.0252 66.3533 42.2765C66.6078 42.5278 66.9098 42.7258 67.2418 42.8589C67.5737 42.9919 67.9289 43.0574 68.2865 43.0515C68.6441 43.0455 68.9968 42.9683 69.3242 42.8242C69.6515 42.6802 69.9468 42.4722 70.1928 42.2126C70.4387 41.953 70.6304 41.6469 70.7565 41.3122L85.8065 3.68725ZM72.154 10.0459L31.8738 50.3261L8.55165 35.4857L72.154 10.0459Z" fill="black"/>
<path d="M86 67.1875C86 72.1769 84.018 76.9619 80.4899 80.4899C76.9619 84.018 72.1769 86 67.1875 86C62.1981 86 57.4131 84.018 53.8851 80.4899C50.357 76.9619 48.375 72.1769 48.375 67.1875C48.375 62.1981 50.357 57.4131 53.8851 53.8851C57.4131 50.357 62.1981 48.375 67.1875 48.375C72.1769 48.375 76.9619 50.357 80.4899 53.8851C84.018 57.4131 86 62.1981 86 67.1875ZM67.1875 56.4375C66.4747 56.4375 65.7912 56.7206 65.2871 57.2246C64.7831 57.7287 64.5 58.4122 64.5 59.125V64.5H59.125C58.4122 64.5 57.7287 64.7831 57.2246 65.2871C56.7206 65.7912 56.4375 66.4747 56.4375 67.1875C56.4375 67.9003 56.7206 68.5838 57.2246 69.0879C57.7287 69.5919 58.4122 69.875 59.125 69.875H64.5V75.25C64.5 75.9628 64.7831 76.6463 65.2871 77.1504C65.7912 77.6544 66.4747 77.9375 67.1875 77.9375C67.9003 77.9375 68.5838 77.6544 69.0879 77.1504C69.5919 76.6463 69.875 75.9628 69.875 75.25V69.875H75.25C75.9628 69.875 76.6463 69.5919 77.1504 69.0879C77.6544 68.5838 77.9375 67.9003 77.9375 67.1875C77.9375 66.4747 77.6544 65.7912 77.1504 65.2871C76.6463 64.7831 75.9628 64.5 75.25 64.5H69.875V59.125C69.875 58.4122 69.5919 57.7287 69.0879 57.2246C68.5838 56.7206 67.9003 56.4375 67.1875 56.4375Z" fill="black"/>
</svg>
